<mxfile host="app.diagrams.net" agent="Mozilla/5.0 (Macintosh; Intel Mac OS X 10_15_7) AppleWebKit/537.36 (KHTML, like Gecko) Chrome/135.0.0.0 Safari/537.36" version="26.0.5">
  <diagram name="第 1 页" id="V-xzX1gbO9cOyd7zCRaQ">
    <mxGraphModel dx="2261" dy="785" grid="1" gridSize="10" guides="1" tooltips="1" connect="1" arrows="1" fold="1" page="1" pageScale="1" pageWidth="827" pageHeight="1169" math="0" shadow="0">
      <root>
        <mxCell id="0" />
        <mxCell id="1" parent="0" />
        <mxCell id="MQjwQUd3IJIm_jEPlz7Y-1" value="" style="rounded=1;whiteSpace=wrap;html=1;" vertex="1" parent="1">
          <mxGeometry x="220" y="90" width="540" height="350" as="geometry" />
        </mxCell>
        <mxCell id="MQjwQUd3IJIm_jEPlz7Y-2" value="" style="endArrow=classic;html=1;rounded=0;" edge="1" parent="1" target="MQjwQUd3IJIm_jEPlz7Y-4">
          <mxGeometry width="50" height="50" relative="1" as="geometry">
            <mxPoint x="29.78" y="369.5" as="sourcePoint" />
            <mxPoint x="280" y="369.65" as="targetPoint" />
          </mxGeometry>
        </mxCell>
        <mxCell id="MQjwQUd3IJIm_jEPlz7Y-3" value="&lt;font style=&quot;font-size: 14px;&quot;&gt;初始prompt&lt;/font&gt;" style="text;html=1;align=center;verticalAlign=middle;whiteSpace=wrap;rounded=0;" vertex="1" parent="1">
          <mxGeometry x="100" y="340" width="80" height="30" as="geometry" />
        </mxCell>
        <mxCell id="MQjwQUd3IJIm_jEPlz7Y-4" value="&lt;font style=&quot;font-size: 15px;&quot;&gt;&lt;b&gt;Prompt优化与自迭代模块&lt;/b&gt;&lt;/font&gt;" style="rounded=1;whiteSpace=wrap;html=1;" vertex="1" parent="1">
          <mxGeometry x="250" y="320" width="200" height="100" as="geometry" />
        </mxCell>
        <mxCell id="MQjwQUd3IJIm_jEPlz7Y-5" value="" style="shape=flexArrow;endArrow=classic;html=1;rounded=0;exitX=1;exitY=0.5;exitDx=0;exitDy=0;" edge="1" parent="1" source="MQjwQUd3IJIm_jEPlz7Y-4" target="MQjwQUd3IJIm_jEPlz7Y-6">
          <mxGeometry width="50" height="50" relative="1" as="geometry">
            <mxPoint x="520" y="370" as="sourcePoint" />
            <mxPoint x="570" y="330" as="targetPoint" />
          </mxGeometry>
        </mxCell>
        <mxCell id="MQjwQUd3IJIm_jEPlz7Y-6" value="&lt;font style=&quot;font-size: 15px;&quot;&gt;&lt;b&gt;灰度部署与分流模块&lt;/b&gt;&lt;/font&gt;" style="rounded=1;whiteSpace=wrap;html=1;" vertex="1" parent="1">
          <mxGeometry x="540" y="320" width="200" height="100" as="geometry" />
        </mxCell>
        <mxCell id="MQjwQUd3IJIm_jEPlz7Y-7" value="&lt;font style=&quot;font-size: 15px;&quot;&gt;&lt;b&gt;实时指标采集与流式反馈模块&lt;/b&gt;&lt;/font&gt;" style="rounded=1;whiteSpace=wrap;html=1;" vertex="1" parent="1">
          <mxGeometry x="540" y="150" width="200" height="100" as="geometry" />
        </mxCell>
        <mxCell id="MQjwQUd3IJIm_jEPlz7Y-8" value="&lt;font style=&quot;font-size: 15px;&quot;&gt;&lt;b&gt;Prompt评估与优选模块&lt;/b&gt;&lt;/font&gt;" style="rounded=1;whiteSpace=wrap;html=1;" vertex="1" parent="1">
          <mxGeometry x="250" y="150" width="200" height="100" as="geometry" />
        </mxCell>
        <mxCell id="MQjwQUd3IJIm_jEPlz7Y-9" value="" style="shape=flexArrow;endArrow=classic;html=1;rounded=0;" edge="1" parent="1" source="MQjwQUd3IJIm_jEPlz7Y-6" target="MQjwQUd3IJIm_jEPlz7Y-7">
          <mxGeometry width="50" height="50" relative="1" as="geometry">
            <mxPoint x="460" y="380" as="sourcePoint" />
            <mxPoint x="550" y="380" as="targetPoint" />
          </mxGeometry>
        </mxCell>
        <mxCell id="MQjwQUd3IJIm_jEPlz7Y-10" value="" style="shape=flexArrow;endArrow=classic;html=1;rounded=0;" edge="1" parent="1" source="MQjwQUd3IJIm_jEPlz7Y-7" target="MQjwQUd3IJIm_jEPlz7Y-8">
          <mxGeometry width="50" height="50" relative="1" as="geometry">
            <mxPoint x="650" y="330" as="sourcePoint" />
            <mxPoint x="650" y="260" as="targetPoint" />
          </mxGeometry>
        </mxCell>
        <mxCell id="MQjwQUd3IJIm_jEPlz7Y-11" value="" style="shape=flexArrow;endArrow=classic;html=1;rounded=0;" edge="1" parent="1" source="MQjwQUd3IJIm_jEPlz7Y-8" target="MQjwQUd3IJIm_jEPlz7Y-4">
          <mxGeometry width="50" height="50" relative="1" as="geometry">
            <mxPoint x="420" y="290" as="sourcePoint" />
            <mxPoint x="330" y="290" as="targetPoint" />
          </mxGeometry>
        </mxCell>
        <mxCell id="MQjwQUd3IJIm_jEPlz7Y-12" value="&lt;p style=&quot;margin: 0px; font-variant-numeric: normal; font-variant-east-asian: normal; font-variant-alternates: normal; font-size-adjust: none; font-kerning: auto; font-optical-sizing: auto; font-feature-settings: normal; font-variation-settings: normal; font-variant-position: normal; font-variant-emoji: normal; font-stretch: normal; line-height: normal; font-family: &amp;quot;PingFang SC&amp;quot;; text-align: start;&quot; class=&quot;p1&quot;&gt;&lt;b style=&quot;&quot;&gt;&lt;font style=&quot;font-size: 15px;&quot;&gt;基于LLM和流式计算的Prompt自动优化系统&lt;/font&gt;&lt;/b&gt;&lt;/p&gt;" style="text;html=1;align=center;verticalAlign=middle;whiteSpace=wrap;rounded=0;" vertex="1" parent="1">
          <mxGeometry x="330" y="100" width="310" height="30" as="geometry" />
        </mxCell>
        <mxCell id="MQjwQUd3IJIm_jEPlz7Y-13" value="" style="rounded=1;whiteSpace=wrap;html=1;" vertex="1" parent="1">
          <mxGeometry x="-10" y="500" width="840" height="350" as="geometry" />
        </mxCell>
        <mxCell id="MQjwQUd3IJIm_jEPlz7Y-14" value="" style="rounded=1;whiteSpace=wrap;html=1;" vertex="1" parent="1">
          <mxGeometry x="20" y="550" width="220" height="290" as="geometry" />
        </mxCell>
        <mxCell id="MQjwQUd3IJIm_jEPlz7Y-15" value="" style="rounded=1;whiteSpace=wrap;html=1;" vertex="1" parent="1">
          <mxGeometry x="284" y="550" width="260" height="290" as="geometry" />
        </mxCell>
        <mxCell id="MQjwQUd3IJIm_jEPlz7Y-16" value="" style="rounded=1;whiteSpace=wrap;html=1;" vertex="1" parent="1">
          <mxGeometry x="590" y="550" width="220" height="290" as="geometry" />
        </mxCell>
        <mxCell id="MQjwQUd3IJIm_jEPlz7Y-17" value="&lt;p style=&quot;margin: 0px; font-variant-numeric: normal; font-variant-east-asian: normal; font-variant-alternates: normal; font-size-adjust: none; font-kerning: auto; font-optical-sizing: auto; font-feature-settings: normal; font-variation-settings: normal; font-variant-position: normal; font-variant-emoji: normal; font-stretch: normal; line-height: normal; font-family: &amp;quot;PingFang SC&amp;quot;; text-align: start;&quot; class=&quot;p1&quot;&gt;&lt;span class=&quot;mp-morpho-clipboard-doc-data&quot; data-morpho-doc-data=&quot;{&amp;quot;token&amp;quot;:&amp;quot;eyJhbGciOiJkaXIiLCJlbmMiOiJBMjU2R0NNIiwiYXBwSWQiOjEsInVpZCI6Ik9UTGszSzE0MUIiLCJkb2NJZCI6Iklva3RoRm1QRExmdTJzIn0..PLM695F7OLUKYBq6.pLq-FQjPBczpItmwOh4ZW0uYPRhOBlbCz8YWpCEhhjt7BF-pnjSfnWdu2Fmjc7VXdDRBUoyjT-BpY-ALlnl2OXvZNR3gXWINHDP6lU0rGojfuVU5cC1_3ToAKtlT7ybksPMMETnjsgNX-z2ijbktiFu4n567qZCZvo0vowr3_w3CYDpdbulUg-4RivVGqKluaLaf5slXxZTphLpaeCs-46T8Pw.FYQd-wOyFWTnTlqUN4SDpg&amp;quot;,&amp;quot;appId&amp;quot;:&amp;quot;1&amp;quot;}&quot;&gt;&lt;/span&gt;&lt;/p&gt;&lt;h3 style=&quot;padding-left:0px&quot; data-morpho-block-id=&quot;docyg-ffece481-315d-11f0-9596-6b752d0b3ea1&quot; data-slate-node=&quot;element&quot; data-indent=&quot;0&quot; data-uuid=&quot;4383bc90-315a-11f0-a705-55c83ccfbb2d&quot; data-morpho-type=&quot;heading&quot; class=&quot;mp-heading&quot;&gt;&lt;span data-morpho-text=&quot;Prompt%E4%BC%98%E5%8C%96%E4%B8%8E%E8%87%AA%E8%BF%AD%E4%BB%A3%E6%A8%A1%E5%9D%97&quot;&gt;Prompt优化与自迭代模块&lt;/span&gt;&lt;/h3&gt;" style="text;html=1;align=center;verticalAlign=middle;whiteSpace=wrap;rounded=0;" vertex="1" parent="1">
          <mxGeometry x="250" y="510" width="310" height="30" as="geometry" />
        </mxCell>
        <mxCell id="MQjwQUd3IJIm_jEPlz7Y-18" value="&lt;b style=&quot;background-color: transparent; color: light-dark(rgb(0, 0, 0), rgb(255, 255, 255)); font-weight: bold;&quot;&gt;上下文信息采集&lt;/b&gt;&lt;span class=&quot;mp-morpho-clipboard-doc-data&quot; data-morpho-doc-data=&quot;{&amp;quot;token&amp;quot;:&amp;quot;eyJhbGciOiJkaXIiLCJlbmMiOiJBMjU2R0NNIiwiYXBwSWQiOjEsInVpZCI6Ik9UTGszSzE0MUIiLCJkb2NJZCI6Iklva3RoRm1QRExmdTJzIn0..PLM695F7OLUKYBq6.pLq-FQjPBczpItmwOh4ZW0uYPRhOBlbCz8YWpCEhhjt7BF-pnjSfnWdu2Fmjc7VXdDRBUoyjT-BpY-ALlnl2OXvZNR3gXWINHDP6lU0rGojfuVU5cC1_3ToAKtlT7ybksPMMETnjsgNX-z2ijbktiFu4n567qZCZvo0vowr3_w3CYDpdbulUg-4RivVGqKluaLaf5slXxZTphLpaeCs-46T8Pw.FYQd-wOyFWTnTlqUN4SDpg&amp;quot;,&amp;quot;appId&amp;quot;:&amp;quot;1&amp;quot;}&quot;&gt;&lt;/span&gt;" style="rounded=1;whiteSpace=wrap;html=1;" vertex="1" parent="1">
          <mxGeometry x="40" y="600" width="180" height="60" as="geometry" />
        </mxCell>
        <mxCell id="MQjwQUd3IJIm_jEPlz7Y-19" value="&lt;b style=&quot;background-color: transparent; color: light-dark(rgb(0, 0, 0), rgb(255, 255, 255)); font-weight: bold;&quot;&gt;优化场景构建&lt;/b&gt;&lt;span class=&quot;mp-morpho-clipboard-doc-data&quot; data-morpho-doc-data=&quot;{&amp;quot;token&amp;quot;:&amp;quot;eyJhbGciOiJkaXIiLCJlbmMiOiJBMjU2R0NNIiwiYXBwSWQiOjEsInVpZCI6Ik9UTGszSzE0MUIiLCJkb2NJZCI6Iklva3RoRm1QRExmdTJzIn0..PLM695F7OLUKYBq6.pLq-FQjPBczpItmwOh4ZW0uYPRhOBlbCz8YWpCEhhjt7BF-pnjSfnWdu2Fmjc7VXdDRBUoyjT-BpY-ALlnl2OXvZNR3gXWINHDP6lU0rGojfuVU5cC1_3ToAKtlT7ybksPMMETnjsgNX-z2ijbktiFu4n567qZCZvo0vowr3_w3CYDpdbulUg-4RivVGqKluaLaf5slXxZTphLpaeCs-46T8Pw.FYQd-wOyFWTnTlqUN4SDpg&amp;quot;,&amp;quot;appId&amp;quot;:&amp;quot;1&amp;quot;}&quot;&gt;&lt;/span&gt;" style="rounded=1;whiteSpace=wrap;html=1;" vertex="1" parent="1">
          <mxGeometry x="40" y="760" width="180" height="60" as="geometry" />
        </mxCell>
        <mxCell id="MQjwQUd3IJIm_jEPlz7Y-20" value="&lt;b style=&quot;background-color: transparent; color: light-dark(rgb(0, 0, 0), rgb(255, 255, 255)); font-weight: bold;&quot;&gt;统一结构封装&lt;/b&gt;&lt;span class=&quot;mp-morpho-clipboard-doc-data&quot; data-morpho-doc-data=&quot;{&amp;quot;token&amp;quot;:&amp;quot;eyJhbGciOiJkaXIiLCJlbmMiOiJBMjU2R0NNIiwiYXBwSWQiOjEsInVpZCI6Ik9UTGszSzE0MUIiLCJkb2NJZCI6Iklva3RoRm1QRExmdTJzIn0..PLM695F7OLUKYBq6.pLq-FQjPBczpItmwOh4ZW0uYPRhOBlbCz8YWpCEhhjt7BF-pnjSfnWdu2Fmjc7VXdDRBUoyjT-BpY-ALlnl2OXvZNR3gXWINHDP6lU0rGojfuVU5cC1_3ToAKtlT7ybksPMMETnjsgNX-z2ijbktiFu4n567qZCZvo0vowr3_w3CYDpdbulUg-4RivVGqKluaLaf5slXxZTphLpaeCs-46T8Pw.FYQd-wOyFWTnTlqUN4SDpg&amp;quot;,&amp;quot;appId&amp;quot;:&amp;quot;1&amp;quot;}&quot;&gt;&lt;/span&gt;" style="rounded=1;whiteSpace=wrap;html=1;" vertex="1" parent="1">
          <mxGeometry x="40" y="680" width="180" height="60" as="geometry" />
        </mxCell>
        <mxCell id="MQjwQUd3IJIm_jEPlz7Y-21" value="&lt;b style=&quot;background-color: transparent; color: light-dark(rgb(0, 0, 0), rgb(255, 255, 255)); font-weight: bold;&quot;&gt;表达增强策略&lt;/b&gt;&lt;span data-morpho-doc-data=&quot;{&amp;quot;token&amp;quot;:&amp;quot;eyJhbGciOiJkaXIiLCJlbmMiOiJBMjU2R0NNIiwiYXBwSWQiOjEsInVpZCI6Ik9UTGszSzE0MUIiLCJkb2NJZCI6Iklva3RoRm1QRExmdTJzIn0..PLM695F7OLUKYBq6.pLq-FQjPBczpItmwOh4ZW0uYPRhOBlbCz8YWpCEhhjt7BF-pnjSfnWdu2Fmjc7VXdDRBUoyjT-BpY-ALlnl2OXvZNR3gXWINHDP6lU0rGojfuVU5cC1_3ToAKtlT7ybksPMMETnjsgNX-z2ijbktiFu4n567qZCZvo0vowr3_w3CYDpdbulUg-4RivVGqKluaLaf5slXxZTphLpaeCs-46T8Pw.FYQd-wOyFWTnTlqUN4SDpg&amp;quot;,&amp;quot;appId&amp;quot;:&amp;quot;1&amp;quot;}&quot; class=&quot;mp-morpho-clipboard-doc-data&quot;&gt;&lt;/span&gt;" style="rounded=1;whiteSpace=wrap;html=1;textDirection=vertical-lr;" vertex="1" parent="1">
          <mxGeometry x="300" y="600" width="40" height="220" as="geometry" />
        </mxCell>
        <mxCell id="MQjwQUd3IJIm_jEPlz7Y-22" value="&lt;b style=&quot;background-color: transparent; color: light-dark(rgb(0, 0, 0), rgb(255, 255, 255)); font-weight: bold;&quot;&gt;模板调参策略&lt;/b&gt;&lt;span class=&quot;mp-morpho-clipboard-doc-data&quot; data-morpho-doc-data=&quot;{&amp;quot;token&amp;quot;:&amp;quot;eyJhbGciOiJkaXIiLCJlbmMiOiJBMjU2R0NNIiwiYXBwSWQiOjEsInVpZCI6Ik9UTGszSzE0MUIiLCJkb2NJZCI6Iklva3RoRm1QRExmdTJzIn0..PLM695F7OLUKYBq6.pLq-FQjPBczpItmwOh4ZW0uYPRhOBlbCz8YWpCEhhjt7BF-pnjSfnWdu2Fmjc7VXdDRBUoyjT-BpY-ALlnl2OXvZNR3gXWINHDP6lU0rGojfuVU5cC1_3ToAKtlT7ybksPMMETnjsgNX-z2ijbktiFu4n567qZCZvo0vowr3_w3CYDpdbulUg-4RivVGqKluaLaf5slXxZTphLpaeCs-46T8Pw.FYQd-wOyFWTnTlqUN4SDpg&amp;quot;,&amp;quot;appId&amp;quot;:&amp;quot;1&amp;quot;}&quot;&gt;&lt;/span&gt;" style="rounded=1;whiteSpace=wrap;html=1;textDirection=vertical-lr;" vertex="1" parent="1">
          <mxGeometry x="360" y="600" width="40" height="220" as="geometry" />
        </mxCell>
        <mxCell id="MQjwQUd3IJIm_jEPlz7Y-23" value="&lt;b style=&quot;background-color: transparent; color: light-dark(rgb(0, 0, 0), rgb(255, 255, 255)); font-weight: bold;&quot;&gt;示例学习策略&lt;/b&gt;&lt;span class=&quot;mp-morpho-clipboard-doc-data&quot; data-morpho-doc-data=&quot;{&amp;quot;token&amp;quot;:&amp;quot;eyJhbGciOiJkaXIiLCJlbmMiOiJBMjU2R0NNIiwiYXBwSWQiOjEsInVpZCI6Ik9UTGszSzE0MUIiLCJkb2NJZCI6Iklva3RoRm1QRExmdTJzIn0..PLM695F7OLUKYBq6.pLq-FQjPBczpItmwOh4ZW0uYPRhOBlbCz8YWpCEhhjt7BF-pnjSfnWdu2Fmjc7VXdDRBUoyjT-BpY-ALlnl2OXvZNR3gXWINHDP6lU0rGojfuVU5cC1_3ToAKtlT7ybksPMMETnjsgNX-z2ijbktiFu4n567qZCZvo0vowr3_w3CYDpdbulUg-4RivVGqKluaLaf5slXxZTphLpaeCs-46T8Pw.FYQd-wOyFWTnTlqUN4SDpg&amp;quot;,&amp;quot;appId&amp;quot;:&amp;quot;1&amp;quot;}&quot;&gt;&lt;/span&gt;" style="rounded=1;whiteSpace=wrap;html=1;textDirection=vertical-lr;" vertex="1" parent="1">
          <mxGeometry x="420" y="600" width="40" height="220" as="geometry" />
        </mxCell>
        <mxCell id="MQjwQUd3IJIm_jEPlz7Y-24" value="&lt;b style=&quot;background-color: transparent; color: light-dark(rgb(0, 0, 0), rgb(255, 255, 255)); font-weight: bold;&quot;&gt;语义扰动策略&lt;/b&gt;&lt;span class=&quot;mp-morpho-clipboard-doc-data&quot; data-morpho-doc-data=&quot;{&amp;quot;token&amp;quot;:&amp;quot;eyJhbGciOiJkaXIiLCJlbmMiOiJBMjU2R0NNIiwiYXBwSWQiOjEsInVpZCI6Ik9UTGszSzE0MUIiLCJkb2NJZCI6Iklva3RoRm1QRExmdTJzIn0..PLM695F7OLUKYBq6.pLq-FQjPBczpItmwOh4ZW0uYPRhOBlbCz8YWpCEhhjt7BF-pnjSfnWdu2Fmjc7VXdDRBUoyjT-BpY-ALlnl2OXvZNR3gXWINHDP6lU0rGojfuVU5cC1_3ToAKtlT7ybksPMMETnjsgNX-z2ijbktiFu4n567qZCZvo0vowr3_w3CYDpdbulUg-4RivVGqKluaLaf5slXxZTphLpaeCs-46T8Pw.FYQd-wOyFWTnTlqUN4SDpg&amp;quot;,&amp;quot;appId&amp;quot;:&amp;quot;1&amp;quot;}&quot;&gt;&lt;/span&gt;" style="rounded=1;whiteSpace=wrap;html=1;textDirection=vertical-lr;" vertex="1" parent="1">
          <mxGeometry x="480" y="600" width="40" height="220" as="geometry" />
        </mxCell>
        <mxCell id="MQjwQUd3IJIm_jEPlz7Y-32" value="&lt;b style=&quot;background-color: transparent; color: light-dark(rgb(0, 0, 0), rgb(255, 255, 255)); font-weight: bold;&quot;&gt;Prompt版本标识符生成&lt;/b&gt;&lt;span class=&quot;mp-morpho-clipboard-doc-data&quot; data-morpho-doc-data=&quot;{&amp;quot;token&amp;quot;:&amp;quot;eyJhbGciOiJkaXIiLCJlbmMiOiJBMjU2R0NNIiwiYXBwSWQiOjEsInVpZCI6Ik9UTGszSzE0MUIiLCJkb2NJZCI6Iklva3RoRm1QRExmdTJzIn0..PLM695F7OLUKYBq6.pLq-FQjPBczpItmwOh4ZW0uYPRhOBlbCz8YWpCEhhjt7BF-pnjSfnWdu2Fmjc7VXdDRBUoyjT-BpY-ALlnl2OXvZNR3gXWINHDP6lU0rGojfuVU5cC1_3ToAKtlT7ybksPMMETnjsgNX-z2ijbktiFu4n567qZCZvo0vowr3_w3CYDpdbulUg-4RivVGqKluaLaf5slXxZTphLpaeCs-46T8Pw.FYQd-wOyFWTnTlqUN4SDpg&amp;quot;,&amp;quot;appId&amp;quot;:&amp;quot;1&amp;quot;}&quot;&gt;&lt;/span&gt;" style="rounded=1;whiteSpace=wrap;html=1;" vertex="1" parent="1">
          <mxGeometry x="610" y="600" width="180" height="60" as="geometry" />
        </mxCell>
        <mxCell id="MQjwQUd3IJIm_jEPlz7Y-33" value="&lt;b style=&quot;background-color: transparent; color: light-dark(rgb(0, 0, 0), rgb(255, 255, 255)); font-weight: bold;&quot;&gt;进化路径图谱维护&lt;/b&gt;&lt;span class=&quot;mp-morpho-clipboard-doc-data&quot; data-morpho-doc-data=&quot;{&amp;quot;token&amp;quot;:&amp;quot;eyJhbGciOiJkaXIiLCJlbmMiOiJBMjU2R0NNIiwiYXBwSWQiOjEsInVpZCI6Ik9UTGszSzE0MUIiLCJkb2NJZCI6Iklva3RoRm1QRExmdTJzIn0..PLM695F7OLUKYBq6.pLq-FQjPBczpItmwOh4ZW0uYPRhOBlbCz8YWpCEhhjt7BF-pnjSfnWdu2Fmjc7VXdDRBUoyjT-BpY-ALlnl2OXvZNR3gXWINHDP6lU0rGojfuVU5cC1_3ToAKtlT7ybksPMMETnjsgNX-z2ijbktiFu4n567qZCZvo0vowr3_w3CYDpdbulUg-4RivVGqKluaLaf5slXxZTphLpaeCs-46T8Pw.FYQd-wOyFWTnTlqUN4SDpg&amp;quot;,&amp;quot;appId&amp;quot;:&amp;quot;1&amp;quot;}&quot;&gt;&lt;/span&gt;" style="rounded=1;whiteSpace=wrap;html=1;" vertex="1" parent="1">
          <mxGeometry x="610" y="760" width="180" height="60" as="geometry" />
        </mxCell>
        <mxCell id="MQjwQUd3IJIm_jEPlz7Y-34" value="&lt;b style=&quot;background-color: transparent; color: light-dark(rgb(0, 0, 0), rgb(255, 255, 255)); font-weight: bold;&quot;&gt;策略链路记录&lt;/b&gt;&lt;span class=&quot;mp-morpho-clipboard-doc-data&quot; data-morpho-doc-data=&quot;{&amp;quot;token&amp;quot;:&amp;quot;eyJhbGciOiJkaXIiLCJlbmMiOiJBMjU2R0NNIiwiYXBwSWQiOjEsInVpZCI6Ik9UTGszSzE0MUIiLCJkb2NJZCI6Iklva3RoRm1QRExmdTJzIn0..PLM695F7OLUKYBq6.pLq-FQjPBczpItmwOh4ZW0uYPRhOBlbCz8YWpCEhhjt7BF-pnjSfnWdu2Fmjc7VXdDRBUoyjT-BpY-ALlnl2OXvZNR3gXWINHDP6lU0rGojfuVU5cC1_3ToAKtlT7ybksPMMETnjsgNX-z2ijbktiFu4n567qZCZvo0vowr3_w3CYDpdbulUg-4RivVGqKluaLaf5slXxZTphLpaeCs-46T8Pw.FYQd-wOyFWTnTlqUN4SDpg&amp;quot;,&amp;quot;appId&amp;quot;:&amp;quot;1&amp;quot;}&quot;&gt;&lt;/span&gt;" style="rounded=1;whiteSpace=wrap;html=1;" vertex="1" parent="1">
          <mxGeometry x="610" y="680" width="180" height="60" as="geometry" />
        </mxCell>
        <mxCell id="MQjwQUd3IJIm_jEPlz7Y-35" value="&lt;p style=&quot;margin: 0px; font-variant-numeric: normal; font-variant-east-asian: normal; font-variant-alternates: normal; font-size-adjust: none; font-kerning: auto; font-optical-sizing: auto; font-feature-settings: normal; font-variation-settings: normal; font-variant-position: normal; font-variant-emoji: normal; font-stretch: normal; line-height: normal; font-family: &amp;quot;PingFang SC&amp;quot;; text-align: start;&quot; class=&quot;p1&quot;&gt;&lt;span class=&quot;mp-morpho-clipboard-doc-data&quot; data-morpho-doc-data=&quot;{&amp;quot;token&amp;quot;:&amp;quot;eyJhbGciOiJkaXIiLCJlbmMiOiJBMjU2R0NNIiwiYXBwSWQiOjEsInVpZCI6Ik9UTGszSzE0MUIiLCJkb2NJZCI6Iklva3RoRm1QRExmdTJzIn0..PLM695F7OLUKYBq6.pLq-FQjPBczpItmwOh4ZW0uYPRhOBlbCz8YWpCEhhjt7BF-pnjSfnWdu2Fmjc7VXdDRBUoyjT-BpY-ALlnl2OXvZNR3gXWINHDP6lU0rGojfuVU5cC1_3ToAKtlT7ybksPMMETnjsgNX-z2ijbktiFu4n567qZCZvo0vowr3_w3CYDpdbulUg-4RivVGqKluaLaf5slXxZTphLpaeCs-46T8Pw.FYQd-wOyFWTnTlqUN4SDpg&amp;quot;,&amp;quot;appId&amp;quot;:&amp;quot;1&amp;quot;}&quot;&gt;&lt;/span&gt;&lt;/p&gt;&lt;h3 style=&quot;padding-left:0px&quot; data-morpho-block-id=&quot;docyg-ffece481-315d-11f0-9596-6b752d0b3ea1&quot; data-slate-node=&quot;element&quot; data-indent=&quot;0&quot; data-uuid=&quot;4383bc90-315a-11f0-a705-55c83ccfbb2d&quot; data-morpho-type=&quot;heading&quot; class=&quot;mp-heading&quot;&gt;&lt;span class=&quot;mp-morpho-clipboard-doc-data&quot; data-morpho-doc-data=&quot;{&amp;quot;token&amp;quot;:&amp;quot;eyJhbGciOiJkaXIiLCJlbmMiOiJBMjU2R0NNIiwiYXBwSWQiOjEsInVpZCI6Ik9UTGszSzE0MUIiLCJkb2NJZCI6Iklva3RoRm1QRExmdTJzIn0..PLM695F7OLUKYBq6.pLq-FQjPBczpItmwOh4ZW0uYPRhOBlbCz8YWpCEhhjt7BF-pnjSfnWdu2Fmjc7VXdDRBUoyjT-BpY-ALlnl2OXvZNR3gXWINHDP6lU0rGojfuVU5cC1_3ToAKtlT7ybksPMMETnjsgNX-z2ijbktiFu4n567qZCZvo0vowr3_w3CYDpdbulUg-4RivVGqKluaLaf5slXxZTphLpaeCs-46T8Pw.FYQd-wOyFWTnTlqUN4SDpg&amp;quot;,&amp;quot;appId&amp;quot;:&amp;quot;1&amp;quot;}&quot;&gt;&lt;/span&gt;&lt;/h3&gt;&lt;h4 style=&quot;padding-left:0px&quot; data-morpho-block-id=&quot;docyg-b73758f1-315e-11f0-9596-6b752d0b3ea1&quot; data-slate-node=&quot;element&quot; data-indent=&quot;0&quot; data-uuid=&quot;debeda46-315b-11f0-a705-55c83ccfbb2d&quot; data-morpho-type=&quot;heading&quot; class=&quot;mp-heading&quot;&gt;&lt;span data-morpho-text=&quot;%E8%BE%93%E5%85%A5%E5%A4%84%E7%90%86%E4%B8%8E%E4%B8%8A%E4%B8%8B%E6%96%87%E5%BB%BA%E6%A8%A1%E6%96%B9%E6%A1%88&quot;&gt;输入处理与上下文建模方案&lt;/span&gt;&lt;/h4&gt;" style="text;html=1;align=center;verticalAlign=middle;whiteSpace=wrap;rounded=0;" vertex="1" parent="1">
          <mxGeometry x="-25" y="560" width="310" height="30" as="geometry" />
        </mxCell>
        <mxCell id="MQjwQUd3IJIm_jEPlz7Y-36" value="&lt;p style=&quot;margin: 0px; font-variant-numeric: normal; font-variant-east-asian: normal; font-variant-alternates: normal; font-size-adjust: none; font-kerning: auto; font-optical-sizing: auto; font-feature-settings: normal; font-variation-settings: normal; font-variant-position: normal; font-variant-emoji: normal; font-stretch: normal; line-height: normal; font-family: &amp;quot;PingFang SC&amp;quot;; text-align: start;&quot; class=&quot;p1&quot;&gt;&lt;span class=&quot;mp-morpho-clipboard-doc-data&quot; data-morpho-doc-data=&quot;{&amp;quot;token&amp;quot;:&amp;quot;eyJhbGciOiJkaXIiLCJlbmMiOiJBMjU2R0NNIiwiYXBwSWQiOjEsInVpZCI6Ik9UTGszSzE0MUIiLCJkb2NJZCI6Iklva3RoRm1QRExmdTJzIn0..PLM695F7OLUKYBq6.pLq-FQjPBczpItmwOh4ZW0uYPRhOBlbCz8YWpCEhhjt7BF-pnjSfnWdu2Fmjc7VXdDRBUoyjT-BpY-ALlnl2OXvZNR3gXWINHDP6lU0rGojfuVU5cC1_3ToAKtlT7ybksPMMETnjsgNX-z2ijbktiFu4n567qZCZvo0vowr3_w3CYDpdbulUg-4RivVGqKluaLaf5slXxZTphLpaeCs-46T8Pw.FYQd-wOyFWTnTlqUN4SDpg&amp;quot;,&amp;quot;appId&amp;quot;:&amp;quot;1&amp;quot;}&quot;&gt;&lt;/span&gt;&lt;/p&gt;&lt;h3 style=&quot;padding-left:0px&quot; data-morpho-block-id=&quot;docyg-ffece481-315d-11f0-9596-6b752d0b3ea1&quot; data-slate-node=&quot;element&quot; data-indent=&quot;0&quot; data-uuid=&quot;4383bc90-315a-11f0-a705-55c83ccfbb2d&quot; data-morpho-type=&quot;heading&quot; class=&quot;mp-heading&quot;&gt;&lt;span class=&quot;mp-morpho-clipboard-doc-data&quot; data-morpho-doc-data=&quot;{&amp;quot;token&amp;quot;:&amp;quot;eyJhbGciOiJkaXIiLCJlbmMiOiJBMjU2R0NNIiwiYXBwSWQiOjEsInVpZCI6Ik9UTGszSzE0MUIiLCJkb2NJZCI6Iklva3RoRm1QRExmdTJzIn0..PLM695F7OLUKYBq6.pLq-FQjPBczpItmwOh4ZW0uYPRhOBlbCz8YWpCEhhjt7BF-pnjSfnWdu2Fmjc7VXdDRBUoyjT-BpY-ALlnl2OXvZNR3gXWINHDP6lU0rGojfuVU5cC1_3ToAKtlT7ybksPMMETnjsgNX-z2ijbktiFu4n567qZCZvo0vowr3_w3CYDpdbulUg-4RivVGqKluaLaf5slXxZTphLpaeCs-46T8Pw.FYQd-wOyFWTnTlqUN4SDpg&amp;quot;,&amp;quot;appId&amp;quot;:&amp;quot;1&amp;quot;}&quot;&gt;&lt;/span&gt;&lt;/h3&gt;&lt;h4 style=&quot;padding-left:0px&quot; data-morpho-block-id=&quot;docyg-b73758f1-315e-11f0-9596-6b752d0b3ea1&quot; data-slate-node=&quot;element&quot; data-indent=&quot;0&quot; data-uuid=&quot;debeda46-315b-11f0-a705-55c83ccfbb2d&quot; data-morpho-type=&quot;heading&quot; class=&quot;mp-heading&quot;&gt;&lt;span class=&quot;mp-morpho-clipboard-doc-data&quot; data-morpho-doc-data=&quot;{&amp;quot;token&amp;quot;:&amp;quot;eyJhbGciOiJkaXIiLCJlbmMiOiJBMjU2R0NNIiwiYXBwSWQiOjEsInVpZCI6Ik9UTGszSzE0MUIiLCJkb2NJZCI6Iklva3RoRm1QRExmdTJzIn0..PLM695F7OLUKYBq6.pLq-FQjPBczpItmwOh4ZW0uYPRhOBlbCz8YWpCEhhjt7BF-pnjSfnWdu2Fmjc7VXdDRBUoyjT-BpY-ALlnl2OXvZNR3gXWINHDP6lU0rGojfuVU5cC1_3ToAKtlT7ybksPMMETnjsgNX-z2ijbktiFu4n567qZCZvo0vowr3_w3CYDpdbulUg-4RivVGqKluaLaf5slXxZTphLpaeCs-46T8Pw.FYQd-wOyFWTnTlqUN4SDpg&amp;quot;,&amp;quot;appId&amp;quot;:&amp;quot;1&amp;quot;}&quot;&gt;&lt;/span&gt;&lt;/h4&gt;&lt;h4 style=&quot;padding-left:0px&quot; data-morpho-block-id=&quot;docyg-bf637ae1-315e-11f0-9596-6b752d0b3ea1&quot; data-slate-node=&quot;element&quot; data-indent=&quot;0&quot; data-uuid=&quot;debf0153-315b-11f0-a705-55c83ccfbb2d&quot; data-morpho-type=&quot;heading&quot; class=&quot;mp-heading&quot;&gt;&lt;span data-morpho-text=&quot;%E5%A4%9A%E7%AD%96%E7%95%A5Prompt%E6%94%B9%E5%86%99%E4%B8%8E%E7%89%88%E6%9C%AC%E7%94%9F%E6%88%90&quot;&gt;多策略Prompt改写与版本生成&lt;/span&gt;&lt;/h4&gt;" style="text;html=1;align=center;verticalAlign=middle;whiteSpace=wrap;rounded=0;" vertex="1" parent="1">
          <mxGeometry x="255" y="560" width="310" height="30" as="geometry" />
        </mxCell>
        <mxCell id="MQjwQUd3IJIm_jEPlz7Y-37" value="&lt;p style=&quot;margin: 0px; font-variant-numeric: normal; font-variant-east-asian: normal; font-variant-alternates: normal; font-size-adjust: none; font-kerning: auto; font-optical-sizing: auto; font-feature-settings: normal; font-variation-settings: normal; font-variant-position: normal; font-variant-emoji: normal; font-stretch: normal; line-height: normal; font-family: &amp;quot;PingFang SC&amp;quot;; text-align: start;&quot; class=&quot;p1&quot;&gt;&lt;span class=&quot;mp-morpho-clipboard-doc-data&quot; data-morpho-doc-data=&quot;{&amp;quot;token&amp;quot;:&amp;quot;eyJhbGciOiJkaXIiLCJlbmMiOiJBMjU2R0NNIiwiYXBwSWQiOjEsInVpZCI6Ik9UTGszSzE0MUIiLCJkb2NJZCI6Iklva3RoRm1QRExmdTJzIn0..PLM695F7OLUKYBq6.pLq-FQjPBczpItmwOh4ZW0uYPRhOBlbCz8YWpCEhhjt7BF-pnjSfnWdu2Fmjc7VXdDRBUoyjT-BpY-ALlnl2OXvZNR3gXWINHDP6lU0rGojfuVU5cC1_3ToAKtlT7ybksPMMETnjsgNX-z2ijbktiFu4n567qZCZvo0vowr3_w3CYDpdbulUg-4RivVGqKluaLaf5slXxZTphLpaeCs-46T8Pw.FYQd-wOyFWTnTlqUN4SDpg&amp;quot;,&amp;quot;appId&amp;quot;:&amp;quot;1&amp;quot;}&quot;&gt;&lt;/span&gt;&lt;/p&gt;&lt;h3 style=&quot;padding-left:0px&quot; data-morpho-block-id=&quot;docyg-ffece481-315d-11f0-9596-6b752d0b3ea1&quot; data-slate-node=&quot;element&quot; data-indent=&quot;0&quot; data-uuid=&quot;4383bc90-315a-11f0-a705-55c83ccfbb2d&quot; data-morpho-type=&quot;heading&quot; class=&quot;mp-heading&quot;&gt;&lt;span class=&quot;mp-morpho-clipboard-doc-data&quot; data-morpho-doc-data=&quot;{&amp;quot;token&amp;quot;:&amp;quot;eyJhbGciOiJkaXIiLCJlbmMiOiJBMjU2R0NNIiwiYXBwSWQiOjEsInVpZCI6Ik9UTGszSzE0MUIiLCJkb2NJZCI6Iklva3RoRm1QRExmdTJzIn0..PLM695F7OLUKYBq6.pLq-FQjPBczpItmwOh4ZW0uYPRhOBlbCz8YWpCEhhjt7BF-pnjSfnWdu2Fmjc7VXdDRBUoyjT-BpY-ALlnl2OXvZNR3gXWINHDP6lU0rGojfuVU5cC1_3ToAKtlT7ybksPMMETnjsgNX-z2ijbktiFu4n567qZCZvo0vowr3_w3CYDpdbulUg-4RivVGqKluaLaf5slXxZTphLpaeCs-46T8Pw.FYQd-wOyFWTnTlqUN4SDpg&amp;quot;,&amp;quot;appId&amp;quot;:&amp;quot;1&amp;quot;}&quot;&gt;&lt;/span&gt;&lt;/h3&gt;&lt;h4 style=&quot;padding-left:0px&quot; data-morpho-block-id=&quot;docyg-b73758f1-315e-11f0-9596-6b752d0b3ea1&quot; data-slate-node=&quot;element&quot; data-indent=&quot;0&quot; data-uuid=&quot;debeda46-315b-11f0-a705-55c83ccfbb2d&quot; data-morpho-type=&quot;heading&quot; class=&quot;mp-heading&quot;&gt;&lt;span class=&quot;mp-morpho-clipboard-doc-data&quot; data-morpho-doc-data=&quot;{&amp;quot;token&amp;quot;:&amp;quot;eyJhbGciOiJkaXIiLCJlbmMiOiJBMjU2R0NNIiwiYXBwSWQiOjEsInVpZCI6Ik9UTGszSzE0MUIiLCJkb2NJZCI6Iklva3RoRm1QRExmdTJzIn0..PLM695F7OLUKYBq6.pLq-FQjPBczpItmwOh4ZW0uYPRhOBlbCz8YWpCEhhjt7BF-pnjSfnWdu2Fmjc7VXdDRBUoyjT-BpY-ALlnl2OXvZNR3gXWINHDP6lU0rGojfuVU5cC1_3ToAKtlT7ybksPMMETnjsgNX-z2ijbktiFu4n567qZCZvo0vowr3_w3CYDpdbulUg-4RivVGqKluaLaf5slXxZTphLpaeCs-46T8Pw.FYQd-wOyFWTnTlqUN4SDpg&amp;quot;,&amp;quot;appId&amp;quot;:&amp;quot;1&amp;quot;}&quot;&gt;&lt;/span&gt;&lt;/h4&gt;&lt;h4 style=&quot;padding-left:0px&quot; data-morpho-block-id=&quot;docyg-bf637ae1-315e-11f0-9596-6b752d0b3ea1&quot; data-slate-node=&quot;element&quot; data-indent=&quot;0&quot; data-uuid=&quot;debf0153-315b-11f0-a705-55c83ccfbb2d&quot; data-morpho-type=&quot;heading&quot; class=&quot;mp-heading&quot;&gt;&lt;span class=&quot;mp-morpho-clipboard-doc-data&quot; data-morpho-doc-data=&quot;{&amp;quot;token&amp;quot;:&amp;quot;eyJhbGciOiJkaXIiLCJlbmMiOiJBMjU2R0NNIiwiYXBwSWQiOjEsInVpZCI6Ik9UTGszSzE0MUIiLCJkb2NJZCI6Iklva3RoRm1QRExmdTJzIn0..PLM695F7OLUKYBq6.pLq-FQjPBczpItmwOh4ZW0uYPRhOBlbCz8YWpCEhhjt7BF-pnjSfnWdu2Fmjc7VXdDRBUoyjT-BpY-ALlnl2OXvZNR3gXWINHDP6lU0rGojfuVU5cC1_3ToAKtlT7ybksPMMETnjsgNX-z2ijbktiFu4n567qZCZvo0vowr3_w3CYDpdbulUg-4RivVGqKluaLaf5slXxZTphLpaeCs-46T8Pw.FYQd-wOyFWTnTlqUN4SDpg&amp;quot;,&amp;quot;appId&amp;quot;:&amp;quot;1&amp;quot;}&quot;&gt;&lt;/span&gt;&lt;/h4&gt;&lt;h4 style=&quot;padding-left:0px&quot; data-morpho-block-id=&quot;docyg-c81c2561-315e-11f0-9596-6b752d0b3ea1&quot; data-slate-node=&quot;element&quot; data-indent=&quot;0&quot; data-uuid=&quot;debf2864-315b-11f0-a705-55c83ccfbb2d&quot; data-morpho-type=&quot;heading&quot; class=&quot;mp-heading&quot;&gt;&lt;span data-morpho-text=&quot;Prompt%E7%89%88%E6%9C%AC%E7%AE%A1%E7%90%86%E4%B8%8E%E7%AD%96%E7%95%A5%E8%BF%BD%E8%B8%AA&quot;&gt;Prompt版本管理与策略追踪&lt;/span&gt;&lt;/h4&gt;" style="text;html=1;align=center;verticalAlign=middle;whiteSpace=wrap;rounded=0;" vertex="1" parent="1">
          <mxGeometry x="545" y="560" width="310" height="30" as="geometry" />
        </mxCell>
        <mxCell id="MQjwQUd3IJIm_jEPlz7Y-38" value="" style="shape=flexArrow;endArrow=classic;html=1;rounded=0;entryX=0;entryY=0.5;entryDx=0;entryDy=0;" edge="1" parent="1" target="MQjwQUd3IJIm_jEPlz7Y-14">
          <mxGeometry width="50" height="50" relative="1" as="geometry">
            <mxPoint x="-30" y="695" as="sourcePoint" />
            <mxPoint y="660" as="targetPoint" />
          </mxGeometry>
        </mxCell>
        <mxCell id="MQjwQUd3IJIm_jEPlz7Y-39" value="" style="shape=flexArrow;endArrow=classic;html=1;rounded=0;entryX=0;entryY=0.5;entryDx=0;entryDy=0;exitX=1;exitY=0.5;exitDx=0;exitDy=0;" edge="1" parent="1" source="MQjwQUd3IJIm_jEPlz7Y-14" target="MQjwQUd3IJIm_jEPlz7Y-15">
          <mxGeometry width="50" height="50" relative="1" as="geometry">
            <mxPoint x="-20" y="705" as="sourcePoint" />
            <mxPoint x="50" y="705" as="targetPoint" />
          </mxGeometry>
        </mxCell>
        <mxCell id="MQjwQUd3IJIm_jEPlz7Y-40" value="" style="shape=flexArrow;endArrow=classic;html=1;rounded=0;" edge="1" parent="1" source="MQjwQUd3IJIm_jEPlz7Y-15" target="MQjwQUd3IJIm_jEPlz7Y-16">
          <mxGeometry width="50" height="50" relative="1" as="geometry">
            <mxPoint x="550" y="690" as="sourcePoint" />
            <mxPoint x="594" y="690" as="targetPoint" />
          </mxGeometry>
        </mxCell>
        <mxCell id="MQjwQUd3IJIm_jEPlz7Y-41" value="" style="shape=flexArrow;endArrow=classic;html=1;rounded=0;exitX=1;exitY=0.5;exitDx=0;exitDy=0;" edge="1" parent="1" source="MQjwQUd3IJIm_jEPlz7Y-16">
          <mxGeometry width="50" height="50" relative="1" as="geometry">
            <mxPoint x="840" y="694.5" as="sourcePoint" />
            <mxPoint x="860" y="695" as="targetPoint" />
          </mxGeometry>
        </mxCell>
        <mxCell id="MQjwQUd3IJIm_jEPlz7Y-42" value="" style="rounded=1;whiteSpace=wrap;html=1;" vertex="1" parent="1">
          <mxGeometry x="130" y="990" width="580" height="320" as="geometry" />
        </mxCell>
        <mxCell id="MQjwQUd3IJIm_jEPlz7Y-43" value="" style="rounded=1;whiteSpace=wrap;html=1;" vertex="1" parent="1">
          <mxGeometry x="158.5" y="1040" width="190" height="250" as="geometry" />
        </mxCell>
        <mxCell id="MQjwQUd3IJIm_jEPlz7Y-44" value="&lt;h4 style=&quot;padding-left:0px&quot; data-morpho-block-id=&quot;docyg-1d3e9361-316a-11f0-9596-6b752d0b3ea1&quot; data-slate-node=&quot;element&quot; data-indent=&quot;0&quot; data-uuid=&quot;fb77b9a0-3169-11f0-a705-55c83ccfbb2d&quot; data-morpho-type=&quot;heading&quot; class=&quot;mp-heading&quot;&gt;&lt;b style=&quot;font-weight:bold&quot;&gt;低延迟反馈通路&lt;/b&gt;&lt;/h4&gt;&lt;span class=&quot;mp-morpho-clipboard-doc-data&quot; data-morpho-doc-data=&quot;{&amp;quot;token&amp;quot;:&amp;quot;eyJhbGciOiJkaXIiLCJlbmMiOiJBMjU2R0NNIiwiYXBwSWQiOjEsInVpZCI6Ik9UTGszSzE0MUIiLCJkb2NJZCI6Iklva3RoRm1QRExmdTJzIn0..PLM695F7OLUKYBq6.pLq-FQjPBczpItmwOh4ZW0uYPRhOBlbCz8YWpCEhhjt7BF-pnjSfnWdu2Fmjc7VXdDRBUoyjT-BpY-ALlnl2OXvZNR3gXWINHDP6lU0rGojfuVU5cC1_3ToAKtlT7ybksPMMETnjsgNX-z2ijbktiFu4n567qZCZvo0vowr3_w3CYDpdbulUg-4RivVGqKluaLaf5slXxZTphLpaeCs-46T8Pw.FYQd-wOyFWTnTlqUN4SDpg&amp;quot;,&amp;quot;appId&amp;quot;:&amp;quot;1&amp;quot;}&quot;&gt;&lt;/span&gt;" style="rounded=1;whiteSpace=wrap;html=1;textDirection=vertical-lr;" vertex="1" parent="1">
          <mxGeometry x="400" y="1040" width="56.5" height="250" as="geometry" />
        </mxCell>
        <mxCell id="MQjwQUd3IJIm_jEPlz7Y-46" value="&lt;p style=&quot;margin: 0px; font-variant-numeric: normal; font-variant-east-asian: normal; font-variant-alternates: normal; font-size-adjust: none; font-kerning: auto; font-optical-sizing: auto; font-feature-settings: normal; font-variation-settings: normal; font-variant-position: normal; font-variant-emoji: normal; font-stretch: normal; line-height: normal; font-family: &amp;quot;PingFang SC&amp;quot;; text-align: start;&quot; class=&quot;p1&quot;&gt;&lt;span class=&quot;mp-morpho-clipboard-doc-data&quot; data-morpho-doc-data=&quot;{&amp;quot;token&amp;quot;:&amp;quot;eyJhbGciOiJkaXIiLCJlbmMiOiJBMjU2R0NNIiwiYXBwSWQiOjEsInVpZCI6Ik9UTGszSzE0MUIiLCJkb2NJZCI6Iklva3RoRm1QRExmdTJzIn0..PLM695F7OLUKYBq6.pLq-FQjPBczpItmwOh4ZW0uYPRhOBlbCz8YWpCEhhjt7BF-pnjSfnWdu2Fmjc7VXdDRBUoyjT-BpY-ALlnl2OXvZNR3gXWINHDP6lU0rGojfuVU5cC1_3ToAKtlT7ybksPMMETnjsgNX-z2ijbktiFu4n567qZCZvo0vowr3_w3CYDpdbulUg-4RivVGqKluaLaf5slXxZTphLpaeCs-46T8Pw.FYQd-wOyFWTnTlqUN4SDpg&amp;quot;,&amp;quot;appId&amp;quot;:&amp;quot;1&amp;quot;}&quot;&gt;&lt;/span&gt;&lt;/p&gt;&lt;h3 style=&quot;padding-left:0px&quot; data-morpho-block-id=&quot;docyg-ffece481-315d-11f0-9596-6b752d0b3ea1&quot; data-slate-node=&quot;element&quot; data-indent=&quot;0&quot; data-uuid=&quot;4383bc90-315a-11f0-a705-55c83ccfbb2d&quot; data-morpho-type=&quot;heading&quot; class=&quot;mp-heading&quot;&gt;&lt;span class=&quot;mp-morpho-clipboard-doc-data&quot; data-morpho-doc-data=&quot;{&amp;quot;token&amp;quot;:&amp;quot;eyJhbGciOiJkaXIiLCJlbmMiOiJBMjU2R0NNIiwiYXBwSWQiOjEsInVpZCI6Ik9UTGszSzE0MUIiLCJkb2NJZCI6Iklva3RoRm1QRExmdTJzIn0..PLM695F7OLUKYBq6.pLq-FQjPBczpItmwOh4ZW0uYPRhOBlbCz8YWpCEhhjt7BF-pnjSfnWdu2Fmjc7VXdDRBUoyjT-BpY-ALlnl2OXvZNR3gXWINHDP6lU0rGojfuVU5cC1_3ToAKtlT7ybksPMMETnjsgNX-z2ijbktiFu4n567qZCZvo0vowr3_w3CYDpdbulUg-4RivVGqKluaLaf5slXxZTphLpaeCs-46T8Pw.FYQd-wOyFWTnTlqUN4SDpg&amp;quot;,&amp;quot;appId&amp;quot;:&amp;quot;1&amp;quot;}&quot;&gt;&lt;/span&gt;&lt;/h3&gt;&lt;h3 style=&quot;padding-left:0px&quot; data-morpho-block-id=&quot;docyg-a0ffa141-3169-11f0-9596-6b752d0b3ea1&quot; data-slate-node=&quot;element&quot; data-indent=&quot;0&quot; data-uuid=&quot;da889be8-3161-11f0-a705-55c83ccfbb2d&quot; data-morpho-type=&quot;heading&quot; class=&quot;mp-heading&quot;&gt;&amp;nbsp;实时指标采集与流式反馈模块&lt;/h3&gt;" style="text;html=1;align=center;verticalAlign=middle;whiteSpace=wrap;rounded=0;" vertex="1" parent="1">
          <mxGeometry x="259" y="1000" width="310" height="30" as="geometry" />
        </mxCell>
        <mxCell id="MQjwQUd3IJIm_jEPlz7Y-47" value="&lt;p style=&quot;margin: 0px; font-variant-numeric: normal; font-variant-east-asian: normal; font-variant-alternates: normal; font-size-adjust: none; font-kerning: auto; font-optical-sizing: auto; font-feature-settings: normal; font-variation-settings: normal; font-variant-position: normal; font-variant-emoji: normal; font-stretch: normal; line-height: normal; font-family: &amp;quot;PingFang SC&amp;quot;; text-align: start;&quot; class=&quot;p1&quot;&gt;&lt;span class=&quot;mp-morpho-clipboard-doc-data&quot; data-morpho-doc-data=&quot;{&amp;quot;token&amp;quot;:&amp;quot;eyJhbGciOiJkaXIiLCJlbmMiOiJBMjU2R0NNIiwiYXBwSWQiOjEsInVpZCI6Ik9UTGszSzE0MUIiLCJkb2NJZCI6Iklva3RoRm1QRExmdTJzIn0..PLM695F7OLUKYBq6.pLq-FQjPBczpItmwOh4ZW0uYPRhOBlbCz8YWpCEhhjt7BF-pnjSfnWdu2Fmjc7VXdDRBUoyjT-BpY-ALlnl2OXvZNR3gXWINHDP6lU0rGojfuVU5cC1_3ToAKtlT7ybksPMMETnjsgNX-z2ijbktiFu4n567qZCZvo0vowr3_w3CYDpdbulUg-4RivVGqKluaLaf5slXxZTphLpaeCs-46T8Pw.FYQd-wOyFWTnTlqUN4SDpg&amp;quot;,&amp;quot;appId&amp;quot;:&amp;quot;1&amp;quot;}&quot;&gt;&lt;/span&gt;&lt;/p&gt;&lt;h3 style=&quot;padding-left:0px&quot; data-morpho-block-id=&quot;docyg-ffece481-315d-11f0-9596-6b752d0b3ea1&quot; data-slate-node=&quot;element&quot; data-indent=&quot;0&quot; data-uuid=&quot;4383bc90-315a-11f0-a705-55c83ccfbb2d&quot; data-morpho-type=&quot;heading&quot; class=&quot;mp-heading&quot;&gt;&lt;span class=&quot;mp-morpho-clipboard-doc-data&quot; data-morpho-doc-data=&quot;{&amp;quot;token&amp;quot;:&amp;quot;eyJhbGciOiJkaXIiLCJlbmMiOiJBMjU2R0NNIiwiYXBwSWQiOjEsInVpZCI6Ik9UTGszSzE0MUIiLCJkb2NJZCI6Iklva3RoRm1QRExmdTJzIn0..PLM695F7OLUKYBq6.pLq-FQjPBczpItmwOh4ZW0uYPRhOBlbCz8YWpCEhhjt7BF-pnjSfnWdu2Fmjc7VXdDRBUoyjT-BpY-ALlnl2OXvZNR3gXWINHDP6lU0rGojfuVU5cC1_3ToAKtlT7ybksPMMETnjsgNX-z2ijbktiFu4n567qZCZvo0vowr3_w3CYDpdbulUg-4RivVGqKluaLaf5slXxZTphLpaeCs-46T8Pw.FYQd-wOyFWTnTlqUN4SDpg&amp;quot;,&amp;quot;appId&amp;quot;:&amp;quot;1&amp;quot;}&quot;&gt;&lt;/span&gt;&lt;/h3&gt;&lt;h4 style=&quot;padding-left:0px&quot; data-morpho-block-id=&quot;docyg-b73758f1-315e-11f0-9596-6b752d0b3ea1&quot; data-slate-node=&quot;element&quot; data-indent=&quot;0&quot; data-uuid=&quot;debeda46-315b-11f0-a705-55c83ccfbb2d&quot; data-morpho-type=&quot;heading&quot; class=&quot;mp-heading&quot;&gt;&lt;span class=&quot;mp-morpho-clipboard-doc-data&quot; data-morpho-doc-data=&quot;{&amp;quot;token&amp;quot;:&amp;quot;eyJhbGciOiJkaXIiLCJlbmMiOiJBMjU2R0NNIiwiYXBwSWQiOjEsInVpZCI6Ik9UTGszSzE0MUIiLCJkb2NJZCI6Iklva3RoRm1QRExmdTJzIn0..PLM695F7OLUKYBq6.pLq-FQjPBczpItmwOh4ZW0uYPRhOBlbCz8YWpCEhhjt7BF-pnjSfnWdu2Fmjc7VXdDRBUoyjT-BpY-ALlnl2OXvZNR3gXWINHDP6lU0rGojfuVU5cC1_3ToAKtlT7ybksPMMETnjsgNX-z2ijbktiFu4n567qZCZvo0vowr3_w3CYDpdbulUg-4RivVGqKluaLaf5slXxZTphLpaeCs-46T8Pw.FYQd-wOyFWTnTlqUN4SDpg&amp;quot;,&amp;quot;appId&amp;quot;:&amp;quot;1&amp;quot;}&quot;&gt;&lt;/span&gt;&lt;/h4&gt;&lt;h4 style=&quot;padding-left:0px&quot; data-morpho-block-id=&quot;docyg-ab2ee631-3169-11f0-9596-6b752d0b3ea1&quot; data-slate-node=&quot;element&quot; data-indent=&quot;0&quot; data-uuid=&quot;2fd3b6a0-3164-11f0-a705-55c83ccfbb2d&quot; data-morpho-type=&quot;heading&quot; class=&quot;mp-heading&quot;&gt;&lt;b style=&quot;font-weight:bold&quot;&gt;&lt;span data-morpho-text=&quot;%E5%A4%9A%E7%BB%B4%E6%8C%87%E6%A0%87%E9%87%87%E9%9B%86%E8%83%BD%E5%8A%9B&quot;&gt;多维指标采集能力&lt;/span&gt;&lt;/b&gt;&lt;/h4&gt;" style="text;html=1;align=center;verticalAlign=middle;whiteSpace=wrap;rounded=0;" vertex="1" parent="1">
          <mxGeometry x="98.5" y="1050" width="310" height="30" as="geometry" />
        </mxCell>
        <mxCell id="MQjwQUd3IJIm_jEPlz7Y-48" value="&lt;b style=&quot;background-color: transparent; color: light-dark(rgb(0, 0, 0), rgb(255, 255, 255)); font-weight: bold;&quot;&gt;用户行为类指标&lt;/b&gt;&lt;span class=&quot;mp-morpho-clipboard-doc-data&quot; data-morpho-doc-data=&quot;{&amp;quot;token&amp;quot;:&amp;quot;eyJhbGciOiJkaXIiLCJlbmMiOiJBMjU2R0NNIiwiYXBwSWQiOjEsInVpZCI6Ik9UTGszSzE0MUIiLCJkb2NJZCI6Iklva3RoRm1QRExmdTJzIn0..PLM695F7OLUKYBq6.pLq-FQjPBczpItmwOh4ZW0uYPRhOBlbCz8YWpCEhhjt7BF-pnjSfnWdu2Fmjc7VXdDRBUoyjT-BpY-ALlnl2OXvZNR3gXWINHDP6lU0rGojfuVU5cC1_3ToAKtlT7ybksPMMETnjsgNX-z2ijbktiFu4n567qZCZvo0vowr3_w3CYDpdbulUg-4RivVGqKluaLaf5slXxZTphLpaeCs-46T8Pw.FYQd-wOyFWTnTlqUN4SDpg&amp;quot;,&amp;quot;appId&amp;quot;:&amp;quot;1&amp;quot;}&quot;&gt;&lt;/span&gt;" style="rounded=1;whiteSpace=wrap;html=1;" vertex="1" parent="1">
          <mxGeometry x="180" y="1100" width="146.5" height="40" as="geometry" />
        </mxCell>
        <mxCell id="MQjwQUd3IJIm_jEPlz7Y-49" value="&lt;b style=&quot;background-color: transparent; color: light-dark(rgb(0, 0, 0), rgb(255, 255, 255)); font-weight: bold;&quot;&gt;模型表现类指标&lt;/b&gt;&lt;span class=&quot;mp-morpho-clipboard-doc-data&quot; data-morpho-doc-data=&quot;{&amp;quot;token&amp;quot;:&amp;quot;eyJhbGciOiJkaXIiLCJlbmMiOiJBMjU2R0NNIiwiYXBwSWQiOjEsInVpZCI6Ik9UTGszSzE0MUIiLCJkb2NJZCI6Iklva3RoRm1QRExmdTJzIn0..PLM695F7OLUKYBq6.pLq-FQjPBczpItmwOh4ZW0uYPRhOBlbCz8YWpCEhhjt7BF-pnjSfnWdu2Fmjc7VXdDRBUoyjT-BpY-ALlnl2OXvZNR3gXWINHDP6lU0rGojfuVU5cC1_3ToAKtlT7ybksPMMETnjsgNX-z2ijbktiFu4n567qZCZvo0vowr3_w3CYDpdbulUg-4RivVGqKluaLaf5slXxZTphLpaeCs-46T8Pw.FYQd-wOyFWTnTlqUN4SDpg&amp;quot;,&amp;quot;appId&amp;quot;:&amp;quot;1&amp;quot;}&quot;&gt;&lt;/span&gt;" style="rounded=1;whiteSpace=wrap;html=1;" vertex="1" parent="1">
          <mxGeometry x="180.25" y="1160" width="146.5" height="40" as="geometry" />
        </mxCell>
        <mxCell id="MQjwQUd3IJIm_jEPlz7Y-50" value="&lt;b style=&quot;background-color: transparent; color: light-dark(rgb(0, 0, 0), rgb(255, 255, 255)); font-weight: bold;&quot;&gt;用户满意度相关指标&lt;/b&gt;&lt;span class=&quot;mp-morpho-clipboard-doc-data&quot; data-morpho-doc-data=&quot;{&amp;quot;token&amp;quot;:&amp;quot;eyJhbGciOiJkaXIiLCJlbmMiOiJBMjU2R0NNIiwiYXBwSWQiOjEsInVpZCI6Ik9UTGszSzE0MUIiLCJkb2NJZCI6Iklva3RoRm1QRExmdTJzIn0..PLM695F7OLUKYBq6.pLq-FQjPBczpItmwOh4ZW0uYPRhOBlbCz8YWpCEhhjt7BF-pnjSfnWdu2Fmjc7VXdDRBUoyjT-BpY-ALlnl2OXvZNR3gXWINHDP6lU0rGojfuVU5cC1_3ToAKtlT7ybksPMMETnjsgNX-z2ijbktiFu4n567qZCZvo0vowr3_w3CYDpdbulUg-4RivVGqKluaLaf5slXxZTphLpaeCs-46T8Pw.FYQd-wOyFWTnTlqUN4SDpg&amp;quot;,&amp;quot;appId&amp;quot;:&amp;quot;1&amp;quot;}&quot;&gt;&lt;/span&gt;" style="rounded=1;whiteSpace=wrap;html=1;" vertex="1" parent="1">
          <mxGeometry x="180.25" y="1220" width="146.5" height="40" as="geometry" />
        </mxCell>
        <mxCell id="MQjwQUd3IJIm_jEPlz7Y-53" value="&lt;h4 style=&quot;padding-left:0px&quot; data-morpho-block-id=&quot;docyg-1d3e9361-316a-11f0-9596-6b752d0b3ea1&quot; data-slate-node=&quot;element&quot; data-indent=&quot;0&quot; data-uuid=&quot;fb77b9a0-3169-11f0-a705-55c83ccfbb2d&quot; data-morpho-type=&quot;heading&quot; class=&quot;mp-heading&quot;&gt;&lt;span class=&quot;mp-morpho-clipboard-doc-data&quot; data-morpho-doc-data=&quot;{&amp;quot;token&amp;quot;:&amp;quot;eyJhbGciOiJkaXIiLCJlbmMiOiJBMjU2R0NNIiwiYXBwSWQiOjEsInVpZCI6Ik9UTGszSzE0MUIiLCJkb2NJZCI6Iklva3RoRm1QRExmdTJzIn0..PLM695F7OLUKYBq6.pLq-FQjPBczpItmwOh4ZW0uYPRhOBlbCz8YWpCEhhjt7BF-pnjSfnWdu2Fmjc7VXdDRBUoyjT-BpY-ALlnl2OXvZNR3gXWINHDP6lU0rGojfuVU5cC1_3ToAKtlT7ybksPMMETnjsgNX-z2ijbktiFu4n567qZCZvo0vowr3_w3CYDpdbulUg-4RivVGqKluaLaf5slXxZTphLpaeCs-46T8Pw.FYQd-wOyFWTnTlqUN4SDpg&amp;quot;,&amp;quot;appId&amp;quot;:&amp;quot;1&amp;quot;}&quot;&gt;&lt;/span&gt;&lt;/h4&gt;&lt;h4 style=&quot;padding-left:0px&quot; data-morpho-block-id=&quot;docyg-299dd7b1-316a-11f0-9596-6b752d0b3ea1&quot; data-slate-node=&quot;element&quot; data-indent=&quot;0&quot; data-uuid=&quot;36f371a0-3164-11f0-a705-55c83ccfbb2d&quot; data-morpho-type=&quot;heading&quot; class=&quot;mp-heading&quot;&gt;&lt;b style=&quot;font-weight:bold&quot;&gt;&lt;span data-morpho-text=&quot;%20&quot;&gt;&lt;span style=&quot;color:#1C1D1F&quot; data-raw-font-value=&quot;#1C1D1F&quot;&gt;&lt;span&gt; &lt;/span&gt;&lt;/span&gt;&lt;/span&gt;&lt;/b&gt;&lt;b style=&quot;font-weight:bold&quot;&gt;&lt;span data-morpho-text=&quot;%E6%95%B0%E6%8D%AE%E9%A2%84%E5%A4%84%E7%90%86%E4%B8%8E%E5%BC%82%E5%B8%B8%E5%89%94%E9%99%A4&quot;&gt;数据预处理与异常剔除&lt;/span&gt;&lt;/b&gt;&lt;/h4&gt;&lt;span class=&quot;mp-morpho-clipboard-doc-data&quot; data-morpho-doc-data=&quot;{&amp;quot;token&amp;quot;:&amp;quot;eyJhbGciOiJkaXIiLCJlbmMiOiJBMjU2R0NNIiwiYXBwSWQiOjEsInVpZCI6Ik9UTGszSzE0MUIiLCJkb2NJZCI6Iklva3RoRm1QRExmdTJzIn0..PLM695F7OLUKYBq6.pLq-FQjPBczpItmwOh4ZW0uYPRhOBlbCz8YWpCEhhjt7BF-pnjSfnWdu2Fmjc7VXdDRBUoyjT-BpY-ALlnl2OXvZNR3gXWINHDP6lU0rGojfuVU5cC1_3ToAKtlT7ybksPMMETnjsgNX-z2ijbktiFu4n567qZCZvo0vowr3_w3CYDpdbulUg-4RivVGqKluaLaf5slXxZTphLpaeCs-46T8Pw.FYQd-wOyFWTnTlqUN4SDpg&amp;quot;,&amp;quot;appId&amp;quot;:&amp;quot;1&amp;quot;}&quot;&gt;&lt;/span&gt;" style="rounded=1;whiteSpace=wrap;html=1;textDirection=vertical-lr;" vertex="1" parent="1">
          <mxGeometry x="508.5" y="1040" width="56.5" height="250" as="geometry" />
        </mxCell>
        <mxCell id="MQjwQUd3IJIm_jEPlz7Y-54" value="&lt;h4 style=&quot;padding-left:0px&quot; data-morpho-block-id=&quot;docyg-1d3e9361-316a-11f0-9596-6b752d0b3ea1&quot; data-slate-node=&quot;element&quot; data-indent=&quot;0&quot; data-uuid=&quot;fb77b9a0-3169-11f0-a705-55c83ccfbb2d&quot; data-morpho-type=&quot;heading&quot; class=&quot;mp-heading&quot;&gt;&lt;span class=&quot;mp-morpho-clipboard-doc-data&quot; data-morpho-doc-data=&quot;{&amp;quot;token&amp;quot;:&amp;quot;eyJhbGciOiJkaXIiLCJlbmMiOiJBMjU2R0NNIiwiYXBwSWQiOjEsInVpZCI6Ik9UTGszSzE0MUIiLCJkb2NJZCI6Iklva3RoRm1QRExmdTJzIn0..PLM695F7OLUKYBq6.pLq-FQjPBczpItmwOh4ZW0uYPRhOBlbCz8YWpCEhhjt7BF-pnjSfnWdu2Fmjc7VXdDRBUoyjT-BpY-ALlnl2OXvZNR3gXWINHDP6lU0rGojfuVU5cC1_3ToAKtlT7ybksPMMETnjsgNX-z2ijbktiFu4n567qZCZvo0vowr3_w3CYDpdbulUg-4RivVGqKluaLaf5slXxZTphLpaeCs-46T8Pw.FYQd-wOyFWTnTlqUN4SDpg&amp;quot;,&amp;quot;appId&amp;quot;:&amp;quot;1&amp;quot;}&quot;&gt;&lt;/span&gt;&lt;/h4&gt;&lt;h4 style=&quot;padding-left:0px&quot; data-morpho-block-id=&quot;docyg-3772a501-316a-11f0-9596-6b752d0b3ea1&quot; data-slate-node=&quot;element&quot; data-indent=&quot;0&quot; data-uuid=&quot;3c077e21-3164-11f0-a705-55c83ccfbb2d&quot; data-morpho-type=&quot;heading&quot; class=&quot;mp-heading&quot;&gt;&lt;b style=&quot;font-weight:bold&quot;&gt;&lt;span data-morpho-text=&quot;%E6%95%B0%E6%8D%AE%E5%BD%92%E6%A1%A3%E8%90%BD%E7%9B%98&quot;&gt;&lt;span style=&quot;color:#1C1D1F&quot; data-raw-font-value=&quot;#1C1D1F&quot;&gt;&lt;span&gt;数据归档落盘&lt;/span&gt;&lt;/span&gt;&lt;/span&gt;&lt;/b&gt;&lt;/h4&gt;&lt;span class=&quot;mp-morpho-clipboard-doc-data&quot; data-morpho-doc-data=&quot;{&amp;quot;token&amp;quot;:&amp;quot;eyJhbGciOiJkaXIiLCJlbmMiOiJBMjU2R0NNIiwiYXBwSWQiOjEsInVpZCI6Ik9UTGszSzE0MUIiLCJkb2NJZCI6Iklva3RoRm1QRExmdTJzIn0..PLM695F7OLUKYBq6.pLq-FQjPBczpItmwOh4ZW0uYPRhOBlbCz8YWpCEhhjt7BF-pnjSfnWdu2Fmjc7VXdDRBUoyjT-BpY-ALlnl2OXvZNR3gXWINHDP6lU0rGojfuVU5cC1_3ToAKtlT7ybksPMMETnjsgNX-z2ijbktiFu4n567qZCZvo0vowr3_w3CYDpdbulUg-4RivVGqKluaLaf5slXxZTphLpaeCs-46T8Pw.FYQd-wOyFWTnTlqUN4SDpg&amp;quot;,&amp;quot;appId&amp;quot;:&amp;quot;1&amp;quot;}&quot;&gt;&lt;/span&gt;" style="rounded=1;whiteSpace=wrap;html=1;textDirection=vertical-lr;" vertex="1" parent="1">
          <mxGeometry x="620" y="1040" width="56.5" height="250" as="geometry" />
        </mxCell>
        <mxCell id="MQjwQUd3IJIm_jEPlz7Y-56" value="" style="shape=flexArrow;endArrow=classic;html=1;rounded=0;" edge="1" parent="1" target="MQjwQUd3IJIm_jEPlz7Y-43">
          <mxGeometry width="50" height="50" relative="1" as="geometry">
            <mxPoint x="109" y="1165" as="sourcePoint" />
            <mxPoint x="158.5" y="1160" as="targetPoint" />
          </mxGeometry>
        </mxCell>
        <mxCell id="MQjwQUd3IJIm_jEPlz7Y-58" value="" style="shape=flexArrow;endArrow=classic;html=1;rounded=0;" edge="1" parent="1" source="MQjwQUd3IJIm_jEPlz7Y-43" target="MQjwQUd3IJIm_jEPlz7Y-44">
          <mxGeometry width="50" height="50" relative="1" as="geometry">
            <mxPoint x="348.5" y="1164" as="sourcePoint" />
            <mxPoint x="399" y="1166" as="targetPoint" />
          </mxGeometry>
        </mxCell>
        <mxCell id="MQjwQUd3IJIm_jEPlz7Y-59" value="" style="shape=flexArrow;endArrow=classic;html=1;rounded=0;exitX=1;exitY=0.5;exitDx=0;exitDy=0;" edge="1" parent="1" source="MQjwQUd3IJIm_jEPlz7Y-44" target="MQjwQUd3IJIm_jEPlz7Y-53">
          <mxGeometry width="50" height="50" relative="1" as="geometry">
            <mxPoint x="450" y="1165" as="sourcePoint" />
            <mxPoint x="515.5" y="1169" as="targetPoint" />
          </mxGeometry>
        </mxCell>
        <mxCell id="MQjwQUd3IJIm_jEPlz7Y-60" value="" style="shape=flexArrow;endArrow=classic;html=1;rounded=0;exitX=1;exitY=0.5;exitDx=0;exitDy=0;" edge="1" parent="1">
          <mxGeometry width="50" height="50" relative="1" as="geometry">
            <mxPoint x="565" y="1168" as="sourcePoint" />
            <mxPoint x="620" y="1170" as="targetPoint" />
          </mxGeometry>
        </mxCell>
        <mxCell id="MQjwQUd3IJIm_jEPlz7Y-61" value="" style="rounded=1;whiteSpace=wrap;html=1;" vertex="1" parent="1">
          <mxGeometry x="10" y="1440" width="895" height="390" as="geometry" />
        </mxCell>
        <mxCell id="MQjwQUd3IJIm_jEPlz7Y-62" value="" style="rounded=1;whiteSpace=wrap;html=1;" vertex="1" parent="1">
          <mxGeometry x="36.5" y="1490" width="333.5" height="200" as="geometry" />
        </mxCell>
        <mxCell id="MQjwQUd3IJIm_jEPlz7Y-63" value="&lt;b style=&quot;background-color: transparent; color: light-dark(rgb(0, 0, 0), rgb(255, 255, 255)); font-weight: bold;&quot;&gt;内容质量指标&lt;/b&gt;&lt;span class=&quot;mp-morpho-clipboard-doc-data&quot; data-morpho-doc-data=&quot;{&amp;quot;token&amp;quot;:&amp;quot;eyJhbGciOiJkaXIiLCJlbmMiOiJBMjU2R0NNIiwiYXBwSWQiOjEsInVpZCI6Ik9UTGszSzE0MUIiLCJkb2NJZCI6Iklva3RoRm1QRExmdTJzIn0..PLM695F7OLUKYBq6.pLq-FQjPBczpItmwOh4ZW0uYPRhOBlbCz8YWpCEhhjt7BF-pnjSfnWdu2Fmjc7VXdDRBUoyjT-BpY-ALlnl2OXvZNR3gXWINHDP6lU0rGojfuVU5cC1_3ToAKtlT7ybksPMMETnjsgNX-z2ijbktiFu4n567qZCZvo0vowr3_w3CYDpdbulUg-4RivVGqKluaLaf5slXxZTphLpaeCs-46T8Pw.FYQd-wOyFWTnTlqUN4SDpg&amp;quot;,&amp;quot;appId&amp;quot;:&amp;quot;1&amp;quot;}&quot;&gt;&lt;/span&gt;" style="rounded=1;whiteSpace=wrap;html=1;" vertex="1" parent="1">
          <mxGeometry x="215.5" y="1520" width="111" height="40" as="geometry" />
        </mxCell>
        <mxCell id="MQjwQUd3IJIm_jEPlz7Y-65" value="&lt;b style=&quot;background-color: transparent; color: light-dark(rgb(0, 0, 0), rgb(255, 255, 255)); font-weight: bold;&quot;&gt;主观质量指标&lt;/b&gt;&lt;span class=&quot;mp-morpho-clipboard-doc-data&quot; data-morpho-doc-data=&quot;{&amp;quot;token&amp;quot;:&amp;quot;eyJhbGciOiJkaXIiLCJlbmMiOiJBMjU2R0NNIiwiYXBwSWQiOjEsInVpZCI6Ik9UTGszSzE0MUIiLCJkb2NJZCI6Iklva3RoRm1QRExmdTJzIn0..PLM695F7OLUKYBq6.pLq-FQjPBczpItmwOh4ZW0uYPRhOBlbCz8YWpCEhhjt7BF-pnjSfnWdu2Fmjc7VXdDRBUoyjT-BpY-ALlnl2OXvZNR3gXWINHDP6lU0rGojfuVU5cC1_3ToAKtlT7ybksPMMETnjsgNX-z2ijbktiFu4n567qZCZvo0vowr3_w3CYDpdbulUg-4RivVGqKluaLaf5slXxZTphLpaeCs-46T8Pw.FYQd-wOyFWTnTlqUN4SDpg&amp;quot;,&amp;quot;appId&amp;quot;:&amp;quot;1&amp;quot;}&quot;&gt;&lt;/span&gt;" style="rounded=1;whiteSpace=wrap;html=1;" vertex="1" parent="1">
          <mxGeometry x="74.5" y="1520" width="111" height="40" as="geometry" />
        </mxCell>
        <mxCell id="MQjwQUd3IJIm_jEPlz7Y-66" value="&lt;b style=&quot;background-color: transparent; color: light-dark(rgb(0, 0, 0), rgb(255, 255, 255)); font-weight: bold;&quot;&gt;风险相关指标&lt;/b&gt;&lt;span class=&quot;mp-morpho-clipboard-doc-data&quot; data-morpho-doc-data=&quot;{&amp;quot;token&amp;quot;:&amp;quot;eyJhbGciOiJkaXIiLCJlbmMiOiJBMjU2R0NNIiwiYXBwSWQiOjEsInVpZCI6Ik9UTGszSzE0MUIiLCJkb2NJZCI6Iklva3RoRm1QRExmdTJzIn0..PLM695F7OLUKYBq6.pLq-FQjPBczpItmwOh4ZW0uYPRhOBlbCz8YWpCEhhjt7BF-pnjSfnWdu2Fmjc7VXdDRBUoyjT-BpY-ALlnl2OXvZNR3gXWINHDP6lU0rGojfuVU5cC1_3ToAKtlT7ybksPMMETnjsgNX-z2ijbktiFu4n567qZCZvo0vowr3_w3CYDpdbulUg-4RivVGqKluaLaf5slXxZTphLpaeCs-46T8Pw.FYQd-wOyFWTnTlqUN4SDpg&amp;quot;,&amp;quot;appId&amp;quot;:&amp;quot;1&amp;quot;}&quot;&gt;&lt;/span&gt;" style="rounded=1;whiteSpace=wrap;html=1;" vertex="1" parent="1">
          <mxGeometry x="249" y="1580" width="111" height="40" as="geometry" />
        </mxCell>
        <mxCell id="MQjwQUd3IJIm_jEPlz7Y-67" value="&lt;b style=&quot;background-color: transparent; color: light-dark(rgb(0, 0, 0), rgb(255, 255, 255)); font-weight: bold;&quot;&gt;模型内部指标&lt;/b&gt;&lt;span class=&quot;mp-morpho-clipboard-doc-data&quot; data-morpho-doc-data=&quot;{&amp;quot;token&amp;quot;:&amp;quot;eyJhbGciOiJkaXIiLCJlbmMiOiJBMjU2R0NNIiwiYXBwSWQiOjEsInVpZCI6Ik9UTGszSzE0MUIiLCJkb2NJZCI6Iklva3RoRm1QRExmdTJzIn0..PLM695F7OLUKYBq6.pLq-FQjPBczpItmwOh4ZW0uYPRhOBlbCz8YWpCEhhjt7BF-pnjSfnWdu2Fmjc7VXdDRBUoyjT-BpY-ALlnl2OXvZNR3gXWINHDP6lU0rGojfuVU5cC1_3ToAKtlT7ybksPMMETnjsgNX-z2ijbktiFu4n567qZCZvo0vowr3_w3CYDpdbulUg-4RivVGqKluaLaf5slXxZTphLpaeCs-46T8Pw.FYQd-wOyFWTnTlqUN4SDpg&amp;quot;,&amp;quot;appId&amp;quot;:&amp;quot;1&amp;quot;}&quot;&gt;&lt;/span&gt;" style="rounded=1;whiteSpace=wrap;html=1;" vertex="1" parent="1">
          <mxGeometry x="47.5" y="1580" width="111" height="40" as="geometry" />
        </mxCell>
        <mxCell id="MQjwQUd3IJIm_jEPlz7Y-68" value="" style="rounded=1;whiteSpace=wrap;html=1;" vertex="1" parent="1">
          <mxGeometry x="103.25" y="1640" width="200" height="40" as="geometry" />
        </mxCell>
        <mxCell id="MQjwQUd3IJIm_jEPlz7Y-70" value="&lt;p style=&quot;margin: 0px; font-variant-numeric: normal; font-variant-east-asian: normal; font-variant-alternates: normal; font-size-adjust: none; font-kerning: auto; font-optical-sizing: auto; font-feature-settings: normal; font-variation-settings: normal; font-variant-position: normal; font-variant-emoji: normal; font-stretch: normal; line-height: normal; font-family: &amp;quot;PingFang SC&amp;quot;; text-align: start;&quot; class=&quot;p1&quot;&gt;&lt;span class=&quot;mp-morpho-clipboard-doc-data&quot; data-morpho-doc-data=&quot;{&amp;quot;token&amp;quot;:&amp;quot;eyJhbGciOiJkaXIiLCJlbmMiOiJBMjU2R0NNIiwiYXBwSWQiOjEsInVpZCI6Ik9UTGszSzE0MUIiLCJkb2NJZCI6Iklva3RoRm1QRExmdTJzIn0..PLM695F7OLUKYBq6.pLq-FQjPBczpItmwOh4ZW0uYPRhOBlbCz8YWpCEhhjt7BF-pnjSfnWdu2Fmjc7VXdDRBUoyjT-BpY-ALlnl2OXvZNR3gXWINHDP6lU0rGojfuVU5cC1_3ToAKtlT7ybksPMMETnjsgNX-z2ijbktiFu4n567qZCZvo0vowr3_w3CYDpdbulUg-4RivVGqKluaLaf5slXxZTphLpaeCs-46T8Pw.FYQd-wOyFWTnTlqUN4SDpg&amp;quot;,&amp;quot;appId&amp;quot;:&amp;quot;1&amp;quot;}&quot;&gt;&lt;/span&gt;&lt;/p&gt;&lt;h3 style=&quot;padding-left:0px&quot; data-morpho-block-id=&quot;docyg-ffece481-315d-11f0-9596-6b752d0b3ea1&quot; data-slate-node=&quot;element&quot; data-indent=&quot;0&quot; data-uuid=&quot;4383bc90-315a-11f0-a705-55c83ccfbb2d&quot; data-morpho-type=&quot;heading&quot; class=&quot;mp-heading&quot;&gt;&lt;span class=&quot;mp-morpho-clipboard-doc-data&quot; data-morpho-doc-data=&quot;{&amp;quot;token&amp;quot;:&amp;quot;eyJhbGciOiJkaXIiLCJlbmMiOiJBMjU2R0NNIiwiYXBwSWQiOjEsInVpZCI6Ik9UTGszSzE0MUIiLCJkb2NJZCI6Iklva3RoRm1QRExmdTJzIn0..PLM695F7OLUKYBq6.pLq-FQjPBczpItmwOh4ZW0uYPRhOBlbCz8YWpCEhhjt7BF-pnjSfnWdu2Fmjc7VXdDRBUoyjT-BpY-ALlnl2OXvZNR3gXWINHDP6lU0rGojfuVU5cC1_3ToAKtlT7ybksPMMETnjsgNX-z2ijbktiFu4n567qZCZvo0vowr3_w3CYDpdbulUg-4RivVGqKluaLaf5slXxZTphLpaeCs-46T8Pw.FYQd-wOyFWTnTlqUN4SDpg&amp;quot;,&amp;quot;appId&amp;quot;:&amp;quot;1&amp;quot;}&quot;&gt;&lt;/span&gt;&lt;/h3&gt;&lt;h3 style=&quot;padding-left:0px&quot; data-morpho-block-id=&quot;docyg-a0ffa141-3169-11f0-9596-6b752d0b3ea1&quot; data-slate-node=&quot;element&quot; data-indent=&quot;0&quot; data-uuid=&quot;da889be8-3161-11f0-a705-55c83ccfbb2d&quot; data-morpho-type=&quot;heading&quot; class=&quot;mp-heading&quot;&gt;&amp;nbsp;实时指标采集与流式反馈模块&lt;/h3&gt;" style="text;html=1;align=center;verticalAlign=middle;whiteSpace=wrap;rounded=0;" vertex="1" parent="1">
          <mxGeometry x="265" y="1450" width="310" height="30" as="geometry" />
        </mxCell>
        <mxCell id="MQjwQUd3IJIm_jEPlz7Y-72" value="" style="endArrow=classic;html=1;rounded=0;exitX=0.644;exitY=0.925;exitDx=0;exitDy=0;exitPerimeter=0;" edge="1" parent="1" source="MQjwQUd3IJIm_jEPlz7Y-65" target="MQjwQUd3IJIm_jEPlz7Y-68">
          <mxGeometry width="50" height="50" relative="1" as="geometry">
            <mxPoint x="370" y="1690" as="sourcePoint" />
            <mxPoint x="420" y="1640" as="targetPoint" />
          </mxGeometry>
        </mxCell>
      </root>
    </mxGraphModel>
  </diagram>
</mxfile>
